<?xml version="1.0" encoding="utf-8"?>
<!-- Generator: Adobe Illustrator 22.1.0, SVG Export Plug-In . SVG Version: 6.00 Build 0)  -->
<svg version="1.1" id="Layer_1" xmlns="http://www.w3.org/2000/svg" xmlns:xlink="http://www.w3.org/1999/xlink" x="0px" y="0px"
	 viewBox="0 0 550 2202" style="enable-background:new 0 0 550 2202;" xml:space="preserve">
<style type="text/css">
	.st0{fill:#EFEFEF;}
	.st1{fill:#F9F9F9;}
	.st2{fill:#F4F4F4;}
	.st3{fill:#F6F3F3;}
	.st4{fill:#EDE9E9;}
	.st5{fill:#E4E2E2;}
	.st6{fill:#FBFBFA;}
	.st7{fill:#F3F1F0;}
	.st8{fill:#E2E2E2;}
</style>
<g>
	<polygon class="st0" points="363.9,160.6 550,117.5 550,345.8 	"/>
	<polygon class="st1" points="244.2,393.9 363.9,160.6 550,345.8 	"/>
	<polyline class="st2" points="276,0 244.2,393.9 363.9,160.6 276,0 	"/>
	<polyline class="st0" points="276,0 0,162.9 0,421.6 244.2,393.9 276,0 	"/>
	<polygon class="st3" points="550,345.8 191.4,671.6 244.2,393.9 	"/>
	<polyline class="st4" points="276,734 550,345.8 191.4,671.6 276,734 	"/>
	<polygon class="st5" points="550,734 550,483.2 550,345.8 276,734 	"/>
	<polygon class="st6" points="244.2,393.9 0,319.9 0,454.9 191.4,671.6 	"/>
	<polygon class="st7" points="191.4,671.6 0,454.9 0,593.6 	"/>
	<polygon class="st8" points="191.4,671.6 0,593.6 0,683.5 	"/>
	<polygon class="st1" points="0,734 0,683.5 191.4,671.6 276,734 	"/>
	<polygon class="st1" points="276,0 363.9,160.6 550,117.5 550,0 	"/>
	<polygon class="st1" points="0,0 0,162.9 276,0 	"/>
</g>
<g>
	<polygon class="st0" points="363.9,894.6 550,851.5 550,1079.8 	"/>
	<polygon class="st1" points="244.2,1127.9 363.9,894.6 550,1079.8 	"/>
	<polyline class="st2" points="276,734 244.2,1127.9 363.9,894.6 276,734 	"/>
	<polyline class="st0" points="276,734 0,896.9 0,1155.6 244.2,1127.9 276,734 	"/>
	<polygon class="st3" points="550,1079.8 191.4,1405.6 244.2,1127.9 	"/>
	<polyline class="st4" points="276,1468 550,1079.8 191.4,1405.6 276,1468 	"/>
	<polygon class="st5" points="550,1468 550,1217.2 550,1079.8 276,1468 	"/>
	<polygon class="st6" points="244.2,1127.9 0,1053.9 0,1188.9 191.4,1405.6 	"/>
	<polygon class="st7" points="191.4,1405.6 0,1188.9 0,1327.6 	"/>
	<polygon class="st8" points="191.4,1405.6 0,1327.6 0,1417.5 	"/>
	<polygon class="st1" points="0,1468 0,1417.5 191.4,1405.6 276,1468 	"/>
	<polygon class="st1" points="276,734 363.9,894.6 550,851.5 550,734 	"/>
	<polygon class="st1" points="0,734 0,896.9 276,734 	"/>
</g>
<g>
	<polygon class="st0" points="363.9,2041.4 550,2084.5 550,1856.2 	"/>
	<polygon class="st1" points="244.2,1808.1 363.9,2041.4 550,1856.2 	"/>
	<polyline class="st2" points="276,2202 244.2,1808.1 363.9,2041.4 276,2202 	"/>
	<polyline class="st0" points="276,2202 0,2039.1 0,1780.4 244.2,1808.1 276,2202 	"/>
	<polygon class="st3" points="550,1856.2 191.4,1530.4 244.2,1808.1 	"/>
	<polyline class="st4" points="276,1468 550,1856.2 191.4,1530.4 276,1468 	"/>
	<polygon class="st5" points="550,1468 550,1718.8 550,1856.2 276,1468 	"/>
	<polygon class="st6" points="244.2,1808.1 0,1882.1 0,1747.1 191.4,1530.4 	"/>
	<polygon class="st7" points="191.4,1530.4 0,1747.1 0,1608.4 	"/>
	<polygon class="st8" points="191.4,1530.4 0,1608.4 0,1518.5 	"/>
	<polygon class="st1" points="0,1468 0,1518.5 191.4,1530.4 276,1468 	"/>
	<polygon class="st1" points="276,2202 363.9,2041.4 550,2084.5 550,2202 	"/>
	<polygon class="st1" points="0,2202 0,2039.1 276,2202 	"/>
</g>
</svg>
