<?xml version="1.0" encoding="utf-8"?>
<!-- Generator: Adobe Illustrator 22.1.0, SVG Export Plug-In . SVG Version: 6.00 Build 0)  -->
<svg version="1.1" id="Layer_2" xmlns="http://www.w3.org/2000/svg" xmlns:xlink="http://www.w3.org/1999/xlink" x="0px" y="0px"
	 viewBox="0 0 554 2960.5" style="enable-background:new 0 0 554 2960.5;" xml:space="preserve">
<style type="text/css">
	.st0{fill:#EFEFEF;}
	.st1{fill:#F9F9F9;}
	.st2{fill:#F4F4F4;}
	.st3{fill:#F6F3F3;}
	.st4{fill:#EDE9E9;}
	.st5{fill:#E4E2E2;}
	.st6{fill:#FBFBFA;}
	.st7{fill:#F3F1F0;}
	.st8{fill:#E2E2E2;}
</style>
<polygon class="st0" points="187.5,1642.2 0,1598.7 0,1829.1 "/>
<polygon class="st1" points="308,1877.6 187.5,1642.2 0,1829.1 "/>
<polygon class="st2" points="187.5,1642.2 274,1480.2 308,1877.6 "/>
<polygon class="st0" points="274,1480.2 554,1644.6 554,1905.5 308,1877.6 "/>
<polygon class="st3" points="0,1829.1 361.2,2157.7 308,1877.6 "/>
<polygon class="st4" points="0,1829.1 361.2,2157.7 263.3,2220.4 "/>
<polygon class="st5" points="0,1829.1 263.3,2220.4 168.5,2220.4 0,2220.4 0,1967.7 "/>
<polygon class="st6" points="308,1877.6 554,1803 554,1939.1 361.2,2157.7 "/>
<polygon class="st7" points="361.2,2157.7 554,1939.1 554,2079.1 "/>
<polygon class="st8" points="361.2,2157.7 554,2079.1 554,2169.7 "/>
<polygon class="st1" points="554,2220.4 554,2169.7 361.2,2157.7 263.3,2220.4 "/>
<polygon class="st1" points="0,1598.7 0,1480.2 274,1480.2 187.5,1642.2 "/>
<polygon class="st1" points="274,1480.2 554,1480.2 554,1644.6 "/>
<g>
	<polygon class="st0" points="187.5,2798.5 0,2842 0,2611.6 	"/>
	<polygon class="st1" points="308,2563.1 187.5,2798.5 0,2611.6 	"/>
	<polygon class="st2" points="187.5,2798.5 274,2960.5 308,2563.1 	"/>
	<polygon class="st0" points="274,2960.5 554,2796.1 554,2535.2 308,2563.1 	"/>
	<polygon class="st3" points="0,2611.6 361.2,2283 308,2563.1 	"/>
	<polygon class="st4" points="0,2611.6 361.2,2283 263.3,2220.4 	"/>
	<polygon class="st5" points="0,2611.6 263.3,2220.4 168.5,2220.4 0,2220.4 0,2473 	"/>
	<polygon class="st6" points="308,2563.1 554,2637.7 554,2501.6 361.2,2283 	"/>
	<polygon class="st7" points="361.2,2283 554,2501.6 554,2361.7 	"/>
	<polygon class="st8" points="361.2,2283 554,2361.7 554,2271 	"/>
	<polygon class="st1" points="554,2220.4 554,2271 361.2,2283 263.3,2220.4 	"/>
	<polygon class="st1" points="0,2842 0,2960.5 274,2960.5 187.5,2798.5 	"/>
	<polygon class="st2" points="274,2960.5 554,2960.5 554,2796.1 	"/>
</g>
<polygon class="st0" points="366.5,162 554,118.5 554,348.9 "/>
<polygon class="st1" points="246,397.4 366.5,162 554,348.9 "/>
<polygon class="st2" points="366.5,162 280,0 246,397.4 "/>
<polygon class="st0" points="280,0 0,164.4 0,425.3 246,397.4 "/>
<polygon class="st3" points="554,348.9 192.8,677.5 246,397.4 "/>
<polygon class="st4" points="554,348.9 192.8,677.5 290.7,740.1 "/>
<polygon class="st5" points="554,348.9 290.7,740.1 385.5,740.1 554,740.1 554,487.5 "/>
<polygon class="st6" points="246,397.4 0,322.8 0,458.9 192.8,677.5 "/>
<polygon class="st7" points="192.8,677.5 0,458.9 0,598.8 "/>
<polygon class="st8" points="192.8,677.5 0,598.8 0,689.5 "/>
<polygon class="st1" points="0,740.1 0,689.5 192.8,677.5 290.7,740.1 "/>
<polygon class="st1" points="554,118.5 554,0 280,0 366.5,162 "/>
<polygon class="st2" points="280,0 0,0 0,164.4 "/>
<polygon class="st0" points="366.5,1318.2 554,1361.7 554,1131.3 "/>
<polygon class="st1" points="246,1082.9 366.5,1318.2 554,1131.3 "/>
<polygon class="st2" points="366.5,1318.2 280,1480.2 246,1082.9 "/>
<polygon class="st0" points="280,1480.2 0,1315.9 0,1054.9 246,1082.9 "/>
<polygon class="st3" points="554,1131.3 192.8,802.7 246,1082.9 "/>
<polygon class="st4" points="554,1131.3 192.8,802.7 290.7,740.1 "/>
<polygon class="st5" points="554,1131.3 290.7,740.1 385.5,740.1 554,740.1 554,992.8 "/>
<polygon class="st6" points="246,1082.9 0,1157.5 0,1021.4 192.8,802.7 "/>
<polygon class="st7" points="192.8,802.7 0,1021.4 0,881.4 "/>
<polygon class="st8" points="192.8,802.7 0,881.4 0,790.7 "/>
<polygon class="st1" points="0,740.1 0,790.7 192.8,802.7 290.7,740.1 "/>
<polygon class="st1" points="554,1361.7 554,1480.2 280,1480.2 366.5,1318.2 "/>
<polygon class="st1" points="280,1480.2 0,1480.2 0,1315.9 "/>
</svg>
