<?xml version="1.0" encoding="utf-8"?>
<!-- Generator: Adobe Illustrator 22.1.0, SVG Export Plug-In . SVG Version: 6.00 Build 0)  -->
<svg version="1.1" xmlns="http://www.w3.org/2000/svg" xmlns:xlink="http://www.w3.org/1999/xlink" x="0px" y="0px"
	 viewBox="0 0 480.8 234.9" style="enable-background:new 0 0 480.8 234.9;" xml:space="preserve">
<style type="text/css">
	.st0{fill:#373737;}
	.st1{fill:#FFEC00;}
	.st2{fill:#F49B2A;}
	.st3{fill:#006EB6;}
	.st4{fill:#00A9D6;}
	.st5{fill:#E20613;}
	.st6{fill:#312782;}
	.st7{fill:#8B4090;}
	.st8{fill:#E84E1B;}
	.st9{fill:#007A39;}
	.st10{fill:#E5007E;}
	.st11{fill:#65B22E;}
	.st12{fill:#93C01F;}
	.st13{fill:#F8B133;}
</style>
<g id="E_x26_M">
	<g>
		<path class="st0" d="M177.4,223.4c0.2,0,0.3,0.1,0.3,0.3v0.9c0,0.2-0.1,0.3-0.3,0.3h-9.1v8.5h11.2c0.2,0,0.3,0.1,0.3,0.3v0.9
			c0,0.2-0.1,0.3-0.3,0.3H167c-0.2,0-0.3-0.1-0.3-0.3v-20.9c0-0.2,0.1-0.3,0.3-0.3h12.5c0.2,0,0.3,0.1,0.3,0.3v0.9
			c0,0.2-0.1,0.3-0.3,0.3h-11.2v8.5H177.4z"/>
		<path class="st0" d="M182.9,213.7c0-0.2,0-0.2,0.2-0.2h1.1c0.2,0,0.3,0.1,0.4,0.2l8.2,19.4l8.1-19.4c0.1-0.2,0.2-0.2,0.4-0.2h1.2
			c0.1,0,0.2,0.1,0.2,0.2l-8.9,21c-0.1,0.2-0.2,0.2-0.4,0.2h-1.1c-0.2,0-0.3-0.1-0.4-0.2L182.9,213.7z"/>
		<path class="st0" d="M217.2,223.4c0.2,0,0.3,0.1,0.3,0.3v0.9c0,0.2-0.1,0.3-0.3,0.3h-9.1v8.5h11.2c0.2,0,0.3,0.1,0.3,0.3v0.9
			c0,0.2-0.1,0.3-0.3,0.3h-12.5c-0.2,0-0.3-0.1-0.3-0.3v-20.9c0-0.2,0.1-0.3,0.3-0.3h12.5c0.2,0,0.3,0.1,0.3,0.3v0.9
			c0,0.2-0.1,0.3-0.3,0.3h-11.2v8.5H217.2z"/>
		<path class="st0" d="M223.9,213.7c0-0.2,0.1-0.3,0.3-0.3h1c0.2,0,0.3,0.1,0.4,0.2l14,18.8v-18.7c0-0.2,0.1-0.3,0.3-0.3h1
			c0.2,0,0.3,0.1,0.3,0.3v20.9c0,0.2-0.1,0.3-0.3,0.3h-1c-0.2,0-0.3-0.1-0.4-0.2l-14-18.7v18.6c0,0.2-0.1,0.3-0.3,0.3h-1
			c-0.2,0-0.3-0.1-0.3-0.3V213.7z"/>
		<path class="st0" d="M259.2,213.4c0.2,0,0.3,0.1,0.3,0.3v0.9c0,0.2-0.1,0.3-0.3,0.3H253v19.8c0,0.2-0.1,0.3-0.3,0.3h-1
			c-0.2,0-0.3-0.1-0.3-0.3v-19.8h-6.2c-0.2,0-0.3-0.1-0.3-0.3v-0.9c0-0.2,0.1-0.3,0.3-0.3H259.2z"/>
		<path class="st0" d="M262.9,229.4c0.2,0,0.3,0,0.3,0.2c0.4,3.1,3.4,4.3,6,4.3c2.8,0,5.7-1.4,5.7-4.5c0-3.7-3.8-4.2-6.7-4.9
			c-3.2-0.8-6.4-1.9-6.4-5.7c0-4,3.5-5.8,7.3-5.8c3.8,0,6.8,2.2,7.2,5.5c0,0.2,0,0.3-0.2,0.3l-1,0.2c-0.2,0-0.3,0-0.3-0.2
			c-0.4-3.1-3.3-4.4-5.7-4.4c-2.9,0-5.7,1.4-5.7,4.4c0,2.9,2.8,3.5,5.7,4.3c3.5,0.9,7.3,1.8,7.3,6.3c0,3.6-3.1,6-7.3,6
			c-3.8,0-6.9-1.9-7.5-5.4c0-0.2,0-0.3,0.2-0.3L262.9,229.4z"/>
		<path class="st0" d="M307.7,234.2c0.1,0.1,0.1,0.2,0,0.4l-0.7,0.7c-0.1,0.1-0.2,0.1-0.4,0l-3-2.9c-1.4,1.8-3.5,3.1-6.4,3.1
			c-4.3,0-7.2-2.4-7.2-6c0-3.1,2.2-4.7,4.5-6.1c-2.2-2.3-3-3.6-3-5.5c0-2.5,2-4.7,5.3-4.7c3,0,4.9,1.8,4.9,4.7
			c0,2.8-2.4,4.3-4.9,5.8l6.5,6.5c0.7-1.6,1-3.2,1-4.6v-0.1c0-0.2,0.1-0.3,0.3-0.3h1c0.2,0,0.3,0.1,0.3,0.3c-0.1,2-0.6,4-1.5,5.7
			L307.7,234.2z M302.6,231.2l-7.1-7c-2.1,1.3-4,2.7-4,5.1c0,2.7,2.5,4.5,5.3,4.5C299.6,233.9,301.4,232.8,302.6,231.2z
			 M295.9,222.5c2.2-1.2,4.2-2.5,4.3-4.6c0-2.3-1.7-3.3-3.3-3.3c-2,0-3.7,1-3.7,3.4C293.2,219.3,294.7,221.2,295.9,222.5z"/>
		<path class="st0" d="M322.7,216v18.6c0,0.2-0.1,0.3-0.3,0.3h-1c-0.2,0-0.3-0.1-0.3-0.3v-20.9c0-0.2,0.1-0.3,0.3-0.3h1
			c0.2,0,0.3,0.1,0.4,0.2l8.1,10.9l8.1-10.9c0.1-0.2,0.2-0.2,0.4-0.2h1c0.2,0,0.3,0.1,0.3,0.3v20.9c0,0.2-0.1,0.3-0.3,0.3h-1
			c-0.2,0-0.3-0.1-0.3-0.3V216l-8.1,10.8c-0.1,0.1-0.2,0.1-0.3,0L322.7,216z"/>
		<path class="st0" d="M356.4,223.4c0.2,0,0.3,0.1,0.3,0.3v0.9c0,0.2-0.1,0.3-0.3,0.3h-9.1v8.5h11.2c0.2,0,0.3,0.1,0.3,0.3v0.9
			c0,0.2-0.1,0.3-0.3,0.3H346c-0.2,0-0.3-0.1-0.3-0.3v-20.9c0-0.2,0.1-0.3,0.3-0.3h12.5c0.2,0,0.3,0.1,0.3,0.3v0.9
			c0,0.2-0.1,0.3-0.3,0.3h-11.2v8.5H356.4z"/>
		<path class="st0" d="M369.7,213.4c5.9,0,10.4,3.6,10.4,10.8c0,7.1-4.5,10.8-10.4,10.8H363c-0.2,0-0.3-0.1-0.3-0.3v-20.9
			c0-0.2,0.1-0.3,0.3-0.3H369.7z M369.7,233.5c5.1,0,8.8-3,8.8-9.3c0-6.3-3.7-9.3-8.8-9.3h-5.3v18.6H369.7z"/>
		<path class="st0" d="M386,234.7c0,0.2-0.1,0.3-0.3,0.3h-1c-0.2,0-0.3-0.1-0.3-0.3v-20.9c0-0.2,0.1-0.3,0.3-0.3h1
			c0.2,0,0.3,0.1,0.3,0.3V234.7z"/>
		<path class="st0" d="M398.7,213.7c0.1-0.2,0.2-0.2,0.4-0.2h1.1c0.2,0,0.3,0.1,0.4,0.2l8.9,21c0.1,0.1,0,0.2-0.2,0.2h-1.2
			c-0.2,0-0.3-0.1-0.4-0.2l-2.1-5.1h-12.1l-2.2,5.1c-0.1,0.2-0.2,0.2-0.4,0.2H390c-0.2,0-0.2-0.1-0.2-0.2L398.7,213.7z M394.3,228.1
			h10.8l-5.4-12.8L394.3,228.1z"/>
	</g>
</g>
<g id="INSIGNIA">
	<g id="LOGO_2_">
		<g id="insignia_1_">
			<polygon class="st1" points="413.7,78.5 413.7,78.5 413.7,78.5 463.9,41.2 445.6,35.2 412,45.3 			"/>
			<polygon class="st2" points="480.8,79.9 480.8,79.8 480.7,79.9 			"/>
			<polygon class="st2" points="414.9,78.5 480.8,79.8 476.3,45.4 463.9,41.2 413.7,78.5 			"/>
			<polygon class="st3" points="333,38 349.4,65.1 369.9,41.2 358.9,12.8 			"/>
			<polygon class="st4" points="324.2,94.4 346.7,128.6 369.9,41.2 			"/>
			<polygon class="st5" points="390.9,95.5 411.2,148 451.1,131.7 450.4,109.7 413.7,78.5 			"/>
			<polygon class="st6" points="369.9,41.2 346.7,128.6 390.9,95.5 			"/>
			<polygon class="st7" points="346.7,128.6 386.4,116.5 411.2,148 390.9,95.5 			"/>
			<polygon class="st8" points="480.8,79.8 414.9,78.5 413.7,78.5 450.4,109.7 449.9,93.2 480.7,79.9 480.8,79.8 480.8,79.8 			"/>
			<polygon class="st9" points="369.9,41.2 412,45.3 389.7,19.7 358.9,12.8 369.9,41.2 369.9,41.2 			"/>
			<polygon class="st10" points="413.7,78.5 369.9,41.2 390.9,95.5 			"/>
			<polygon class="st11" points="412,45.3 409.6,0 389.7,19.7 412,45.3 			"/>
			<polygon class="st12" points="412,45.3 412,45.3 445.6,35.2 442.3,8.7 409.6,0 412,45.3 			"/>
			<polygon class="st13" points="412,45.3 412,45.3 412,45.3 412,45.3 369.9,41.2 369.9,41.2 413.7,78.5 413.7,78.5 			"/>
		</g>
	</g>
</g>
<g id="S">
	<g id="aps_1_">
		<path class="st0" d="M274.7,89.9c37.6,0,45.6,28.1,47.2,38.2l-18.4,0.1c-1.2-6.6-6.6-20.1-30.7-20.1c-23.8,0-27,10.1-27,13.7
			c0,4.9,2.9,7.4,29.1,10.8c31.3,4,45.6,10.1,45.6,29s-19.9,31.8-45.9,31.8c-30.5,0-48.6-20.5-48.6-41.8h18.6
			c0,0,0.4,23.5,29.9,23.5c26.2,0,27.9-10.8,27.9-13.4c0-4.9-2.9-8.6-30.1-11.1s-44.9-9.9-44.9-28S245.5,89.9,274.7,89.9z"/>
	</g>
</g>
<g id="P">
	<path class="st0" d="M163.7,89.6c-29.7,0-50.4,22.6-50.4,54.9v90.7h20.3v-87.4c0-28.5,15.6-38.7,30.2-38.7
		c18.5,0,31.4,13.5,31.4,32.8c0,19.4-12.4,32.4-31,32.4c-8.2,0-17.9-4.2-24-8.3l-1.8-1.3v21.7l0.6,0.3c8.2,4.7,17.7,7.1,28.3,7.1
		c12.4,0,24.7-5.2,33.7-14.3c9.3-9.4,14.5-21.9,14.5-35.3c0-14.8-4.8-28.4-13.6-38.3C192.2,95.2,179.1,89.6,163.7,89.6z"/>
</g>
<g id="A">
	<path class="st0" d="M51.7,89.6c-15.4,0-28.6,5.6-38,16.2C4.8,115.7,0,129.3,0,144.1c0,13.3,5.1,25.9,14.5,35.3
		c9,9.1,21.3,14.3,33.7,14.3c10.5,0,20.1-2.4,28.3-7.1l0.6-0.3v-21.7l-1.8,1.3c-6,4.2-15.8,8.3-24,8.3c-18.5,0-31-13-31-32.4
		c0-19.3,12.9-32.8,31.4-32.8c14.6,0,30.2,10.2,30.2,38.7v43.9h20.3v-47.2C102.1,112.2,81.4,89.6,51.7,89.6z"/>
</g>
</svg>
