<?xml version="1.0" encoding="utf-8"?>
<!-- Generator: Adobe Illustrator 22.1.0, SVG Export Plug-In . SVG Version: 6.00 Build 0)  -->
<svg version="1.1" id="Layer_1" xmlns="http://www.w3.org/2000/svg" xmlns:xlink="http://www.w3.org/1999/xlink" x="0px" y="0px"
	 viewBox="0 0 1200 4804.4" style="enable-background:new 0 0 1200 4804.4;" xml:space="preserve">
<style type="text/css">
	.st0{fill:#EFEFEF;}
	.st1{fill:#F9F9F9;}
	.st2{fill:#F4F4F4;}
	.st3{fill:#F6F3F3;}
	.st4{fill:#EDE9E9;}
	.st5{fill:#E4E2E2;}
	.st6{fill:#FBFBFA;}
	.st7{fill:#F3F1F0;}
	.st8{fill:#E2E2E2;}
</style>
<g>
	<g>
		<polygon class="st0" points="794,350.4 1200,256.4 1200,754.5 		"/>
		<polygon class="st1" points="532.8,859.4 794,350.4 1200,754.5 		"/>
		<polyline class="st2" points="602.2,0 532.8,859.4 794,350.4 602.2,0 		"/>
		<polyline class="st0" points="602.2,0 0,355.4 0,919.9 532.8,859.4 602.2,0 		"/>
		<polygon class="st3" points="1200,754.5 417.6,1465.3 532.8,859.4 		"/>
		<polyline class="st4" points="602.2,1601.5 1200,754.5 417.6,1465.3 602.2,1601.5 		"/>
		<polygon class="st5" points="1200,1601.5 1200,1054.3 1200,754.5 602.2,1601.5 		"/>
		<polygon class="st6" points="532.8,859.4 0,698 0,992.5 417.6,1465.3 		"/>
		<polygon class="st7" points="417.6,1465.3 0,992.5 0,1295.1 		"/>
		<polygon class="st8" points="417.6,1465.3 0,1295.1 0,1491.3 		"/>
		<polygon class="st1" points="0,1601.5 0,1491.3 417.6,1465.3 602.2,1601.5 		"/>
		<polygon class="st1" points="602.2,0 794,350.4 1200,256.4 1200,0 		"/>
		<polygon class="st1" points="0,0 0,355.4 602.2,0 		"/>
	</g>
	<g>
		<polygon class="st0" points="794,1951.9 1200,1857.8 1200,2355.9 		"/>
		<polygon class="st1" points="532.8,2460.9 794,1951.9 1200,2355.9 		"/>
		<polyline class="st2" points="602.2,1601.5 532.8,2460.9 794,1951.9 602.2,1601.5 		"/>
		<polyline class="st0" points="602.2,1601.5 0,1956.9 0,2521.3 532.8,2460.9 602.2,1601.5 		"/>
		<polygon class="st3" points="1200,2355.9 417.6,3066.8 532.8,2460.9 		"/>
		<polyline class="st4" points="602.2,3202.9 1200,2355.9 417.6,3066.8 602.2,3202.9 		"/>
		<polygon class="st5" points="1200,3202.9 1200,2655.7 1200,2355.9 602.2,3202.9 		"/>
		<polygon class="st6" points="532.8,2460.9 0,2299.4 0,2594 417.6,3066.8 		"/>
		<polygon class="st7" points="417.6,3066.8 0,2594 0,2896.6 		"/>
		<polygon class="st8" points="417.6,3066.8 0,2896.6 0,3092.7 		"/>
		<polygon class="st1" points="0,3202.9 0,3092.7 417.6,3066.8 602.2,3202.9 		"/>
		<polygon class="st1" points="602.2,1601.5 794,1951.9 1200,1857.8 1200,1601.5 		"/>
		<polygon class="st1" points="0,1601.5 0,1956.9 602.2,1601.5 		"/>
	</g>
	<g>
		<polygon class="st0" points="794,4454 1200,4548 1200,4049.9 		"/>
		<polygon class="st1" points="532.8,3944.9 794,4454 1200,4049.9 		"/>
		<polyline class="st2" points="602.2,4804.4 532.8,3944.9 794,4454 602.2,4804.4 		"/>
		<polyline class="st0" points="602.2,4804.4 0,4448.9 0,3884.5 532.8,3944.9 602.2,4804.4 		"/>
		<polygon class="st3" points="1200,4049.9 417.6,3339.1 532.8,3944.9 		"/>
		<polyline class="st4" points="602.2,3202.9 1200,4049.9 417.6,3339.1 602.2,3202.9 		"/>
		<polygon class="st5" points="1200,3202.9 1200,3750.1 1200,4049.9 602.2,3202.9 		"/>
		<polygon class="st6" points="532.8,3944.9 0,4106.4 0,3811.9 417.6,3339.1 		"/>
		<polygon class="st7" points="417.6,3339.1 0,3811.9 0,3509.2 		"/>
		<polygon class="st8" points="417.6,3339.1 0,3509.2 0,3313.1 		"/>
		<polygon class="st1" points="0,3202.9 0,3313.1 417.6,3339.1 602.2,3202.9 		"/>
		<polygon class="st1" points="602.2,4804.4 794,4454 1200,4548 1200,4804.4 		"/>
		<polygon class="st1" points="0,4804.4 0,4448.9 602.2,4804.4 		"/>
	</g>
</g>
</svg>
