<svg id="Layer_1" xmlns="http://www.w3.org/2000/svg" viewBox="0 0 100 267"><style>.st0{fill:#efefef}.st1{fill:#f9f9f9}.st2{fill:#f4f4f4}.st3{fill:#f6f3f3}.st4{fill:#ede9e9}.st5{fill:#e4e2e2}.st6{fill:#fbfbfa}.st7{fill:#f3f1f0}.st8{fill:#e2e2e2}</style><path class="st0" d="M66.2 29.2l33.8-7.8v41.5z"/><path class="st1" d="M44.4 71.6l21.8-42.4L100 62.9z"/><path class="st2" d="M50.2 0l-5.8 71.6 21.8-42.4L50.2 0"/><path class="st0" d="M50.2 0L0 29.6v47.1l44.4-5.1L50.2 0"/><path class="st3" d="M100 62.9l-65.2 59.2 9.6-50.5z"/><path class="st4" d="M50.2 133.5L100 62.9l-65.2 59.2 15.4 11.4"/><path class="st5" d="M100 133.5V62.9l-49.8 70.6z"/><path class="st6" d="M44.4 71.6L0 58.2v24.5l34.8 39.4z"/><path class="st7" d="M34.8 122.1L0 82.7v25.2z"/><path class="st8" d="M34.8 122.1L0 107.9v16.4z"/><path class="st1" d="M0 133.5v-9.2l34.8-2.2 15.4 11.4zM50.2 0l16 29.2 33.8-7.8V0zM0 0v29.6L50.2 0z"/><g><path class="st0" d="M100 204.1v41.5l-33.8-7.8z"/><path class="st1" d="M100 204.1l-33.8 33.7-21.8-42.4z"/><path class="st2" d="M50.2 267l16-29.2-21.8-42.4 5.8 71.6"/><path class="st0" d="M50.2 267l-5.8-71.6L0 190.3v47.1L50.2 267"/><path class="st3" d="M44.4 195.4l-9.6-50.5 65.2 59.2z"/><path class="st4" d="M50.2 133.5l-15.4 11.4 65.2 59.2-49.8-70.6"/><path class="st5" d="M50.2 133.5l49.8 70.6v-70.6z"/><path class="st6" d="M34.8 144.9L0 184.3v24.5l44.4-13.4z"/><path class="st7" d="M0 159.1v25.2l34.8-39.4z"/><path class="st8" d="M0 142.7v16.4l34.8-14.2z"/><path class="st1" d="M50.2 133.5l-15.4 11.4L0 142.7v-9.2zM100 267v-21.4l-33.8-7.8-16 29.2zM50.2 267L0 237.4V267z"/></g></svg>