<?xml version="1.0" encoding="utf-8"?>
<!-- Generator: Adobe Illustrator 22.1.0, SVG Export Plug-In . SVG Version: 6.00 Build 0)  -->
<svg version="1.1" id="Layer_1" xmlns="http://www.w3.org/2000/svg" xmlns:xlink="http://www.w3.org/1999/xlink" x="0px" y="0px"
	 viewBox="0 0 100 133.5" style="enable-background:new 0 0 100 133.5;" xml:space="preserve">
<style type="text/css">
	.st0{fill:#EFEFEF;}
	.st1{fill:#F9F9F9;}
	.st2{fill:#F4F4F4;}
	.st3{fill:#F6F3F3;}
	.st4{fill:#EDE9E9;}
	.st5{fill:#E4E2E2;}
	.st6{fill:#FBFBFA;}
	.st7{fill:#F3F1F0;}
	.st8{fill:#E2E2E2;}
</style>
<g>
	<polygon class="st0" points="66.2,29.2 100,21.4 100,62.9 	"/>
	<polygon class="st1" points="44.4,71.6 66.2,29.2 100,62.9 	"/>
	<polyline class="st2" points="50.2,0 44.4,71.6 66.2,29.2 50.2,0 	"/>
	<polyline class="st0" points="50.2,0 0,29.6 0,76.7 44.4,71.6 50.2,0 	"/>
	<polygon class="st3" points="100,62.9 34.8,122.1 44.4,71.6 	"/>
	<polyline class="st4" points="50.2,133.5 100,62.9 34.8,122.1 50.2,133.5 	"/>
	<polygon class="st5" points="100,133.5 100,87.9 100,62.9 50.2,133.5 	"/>
	<polygon class="st6" points="44.4,71.6 0,58.2 0,82.7 34.8,122.1 	"/>
	<polygon class="st7" points="34.8,122.1 0,82.7 0,107.9 	"/>
	<polygon class="st8" points="34.8,122.1 0,107.9 0,124.3 	"/>
	<polygon class="st1" points="0,133.5 0,124.3 34.8,122.1 50.2,133.5 	"/>
	<polygon class="st1" points="50.2,0 66.2,29.2 100,21.4 100,0 	"/>
	<polygon class="st1" points="0,0 0,29.6 50.2,0 	"/>
</g>
</svg>
