<?xml version="1.0" encoding="utf-8"?>
<!-- Generator: Adobe Illustrator 24.0.3, SVG Export Plug-In . SVG Version: 6.00 Build 0)  -->
<svg version="1.1" id="Layer_1" xmlns="http://www.w3.org/2000/svg" xmlns:xlink="http://www.w3.org/1999/xlink" x="0px" y="0px"
	 viewBox="0 0 546.9 547.3" style="enable-background:new 0 0 546.9 547.3;" xml:space="preserve">
<style type="text/css">
	.st0{fill:#002170;}
	.st1{fill:#FFFFFF;}
	.st2{fill:#E50000;}
	.st3{fill:#52D1FC;}
</style>
<rect y="-0.6" class="st0" width="547.9" height="547.9"/>
<g>
	<path class="st1" d="M48,69.3v14.5h13.1c5.5,0,8.2-2.4,8.2-7.2c0-4.9-3.2-7.3-8.1-7.3H48z M48,45.6v13.2h12c4.6,0,6.9-2.2,6.9-6.5
		c0-4.4-2.8-6.7-7.6-6.7H48z M35.6,34.6h25.2c11.4,0,18.8,5.8,18.8,16.8c0,5.2-1.9,9.2-5.9,11.8c4.9,1.9,8.4,6.9,8.4,14.1
		c0,11.3-7.7,17.6-19.5,17.6h-27V34.6z"/>
	<path class="st1" d="M100.1,70h16.8c-0.2-5.2-3-8.4-8.1-8.4C103.6,61.6,100.4,64.7,100.1,70 M128.6,77.8h-28.6
		c0.2,5.2,3.5,8.5,8.7,8.5c4.2,0,6.8-1.5,7.7-4.6l11.8,0.6c-0.7,3.9-2.9,7.3-6.5,9.7c-3.6,2.5-7.7,3.8-12.7,3.8
		c-6.4,0-11.7-1.9-15.6-5.9c-4-3.9-5.9-9.2-5.9-15.8c0-6.7,1.9-11.9,5.9-15.8c3.9-3.9,9-5.9,15.3-5.9c6,0,10.9,1.8,14.5,5.6
		c3.6,3.6,5.4,8.7,5.4,15.1V77.8z"/>
	<path class="st1" d="M166.7,65.9L155,66.5c-0.2-3.4-1.9-5.1-5.3-5.1c-3.1,0-4.8,1.2-4.8,3.5c0,1.3,0.6,2.1,1.8,2.7
		c1.4,0.7,3.6,1.2,6.4,1.9c9.6,2.5,14.2,5.3,14.2,12.3c0,8.6-6.4,13.9-17.1,13.9c-10.6,0-16.8-4.8-17.7-13.5l11.8-0.6
		c0.2,3.5,2.2,5.2,6,5.2c3.2,0,5.2-1.5,5.2-3.8c0-2.5-1.4-3.2-7.6-4.8c-4.3-1-6.1-1.6-9-2.9c-3.9-2-5.4-4.6-5.7-9.7
		c0-8.1,6.3-13.1,16.7-13.1C160.1,52.4,165.9,57.8,166.7,65.9"/>
	<path class="st1" d="M188.3,63.4l-0.1,15.5c0,4.3,2.7,6.3,6.3,6.3c0.9,0,2.1-0.2,3.6-0.4v10.5c-2.3,0.3-4.4,0.5-6.5,0.5
		c-9.4,0-15.2-4.7-15.1-14l0.1-18.3H169V53.2h7.7l0.1-13.8h11.8l-0.1,13.8h9.7v10.2H188.3z"/>
</g>
<g>
	<polygon class="st1" points="98.2,174 87.7,174 74.9,135.8 62.1,174 51.6,174 30.5,113.7 44.1,113.7 57,152.9 69.8,113.7 80,113.7 
		92.9,152.9 105.7,113.7 119.2,113.7 	"/>
	<g>
		<path class="st1" d="M137,141.6c-3.1,0-5.6,1-7.4,3.1c-1.9,2-2.8,4.8-2.8,8.5c0,3.6,1,6.4,2.8,8.5c1.9,2,4.3,3.1,7.4,3.1
			c3.1,0,5.6-1.1,7.4-3.1c1.9-2,2.8-4.8,2.8-8.5c0-3.6-1-6.4-2.8-8.5C142.6,142.6,140.1,141.6,137,141.6 M152.9,168.9
			c-4.1,3.9-9.4,6-15.9,6s-11.8-2-15.9-6c-4.1-4-6.2-9.3-6.2-15.7c0-6.5,2.1-11.8,6.2-15.7c4.2-3.9,9.5-6,15.9-6s11.8,2,15.9,6
			c4.2,3.9,6.3,9.2,6.3,15.7C159.2,159.6,157.1,164.9,152.9,168.9"/>
		<path class="st1" d="M188.9,143.3c-6.8,0-11,3.8-11,9.6V174h-11.8v-41.6h11.4v4.8c2.2-3.5,6-5.2,11.4-5.2V143.3z"/>
	</g>
	<polygon class="st1" points="205.9,147.2 219.3,132.3 233.6,132.3 217.9,150.1 234.7,174 220.5,174 209.6,158.9 205.9,162.9 
		205.9,174 194.1,174 194.1,111.4 205.9,111.4 	"/>
	<g>
		<path class="st1" d="M250.3,152.2v1.9c0,6.5,3.9,10.6,9.8,10.6c6,0,10.1-4.3,10.1-11.6c0-7.3-4-11.6-10.1-11.6
			C254.3,141.6,250.3,145.7,250.3,152.2 M276.5,137.5c3.8,3.9,5.6,9.2,5.6,15.7c0,6.5-1.9,11.8-5.6,15.7c-3.7,3.9-8.5,6-14.5,6
			c-5.1,0-9-1.4-11.7-4.4v24.1h-11.8v-62.2h11.1v4.3c2.6-3.5,6.7-5.2,12.3-5.2C268,131.5,272.8,133.5,276.5,137.5"/>
	</g>
	<rect x="289.1" y="111.4" class="st1" width="11.8" height="62.6"/>
	<g>
		<path class="st1" d="M331.9,157.2l-6.3,0.4c-4,0.2-6,1.6-6,4.4c0,2.5,1.6,3.8,4.8,3.8c4.4,0,7.5-2.5,7.5-6.8V157.2z M343.7,148.3
			V174h-11.4v-3.4c-2.7,2.8-6.3,4.3-10.6,4.3c-8.6,0-13.9-4.3-13.9-12.3s5.6-12.2,16.7-12.6l7.4-0.4v-1.6c0-4.3-1.8-6.4-5.4-6.4
			c-3.8,0-5.8,2.5-5.8,5.5l-11.8-0.5c0-3.9,1.6-7.3,4.8-10.3c3.3-3.1,7.5-4.6,12.6-4.6C337.6,131.5,343.7,137.3,343.7,148.3"/>
		<path class="st1" d="M384.8,135.9c3.6,2.9,5.9,6.8,6.6,11.8l-11.5,1c-0.6-4.3-3.7-7-8.2-7c-5.6,0-9.4,4.3-9.4,11.6
			c0,7.2,3.9,11.5,9.4,11.5c4.6,0,7.7-2.6,8.3-6.8l11.4,1c-0.8,4.9-3,8.8-6.6,11.6c-3.6,2.8-8,4.3-13.1,4.3
			c-6.3,0-11.4-1.9-15.4-5.8c-4-3.9-6-9.2-6-15.9c0-6.7,2-12,6-15.9c3.9-3.9,9.1-5.8,15.4-5.8C376.8,131.5,381.1,133,384.8,135.9"/>
		<path class="st1" d="M408,149.1h16.8c-0.2-5.2-3-8.4-8.1-8.4C411.6,140.7,408.4,143.9,408,149.1 M436.6,156.9H408
			c0.2,5.2,3.5,8.5,8.7,8.5c4.2,0,6.8-1.5,7.7-4.6l11.8,0.6c-0.7,3.9-2.9,7.3-6.5,9.7c-3.6,2.5-7.7,3.8-12.7,3.8
			c-6.4,0-11.7-1.9-15.6-5.9c-4-3.9-5.9-9.2-5.9-15.8c0-6.7,1.9-11.9,5.9-15.8c3.9-3.9,9-5.9,15.3-5.9c6,0,10.9,1.8,14.5,5.6
			c3.6,3.6,5.4,8.7,5.4,15.1V156.9z"/>
		<path class="st1" d="M474.7,145l-11.7,0.6c-0.2-3.4-1.9-5.1-5.3-5.1c-3.1,0-4.8,1.2-4.8,3.5c0,1.3,0.6,2.1,1.8,2.7
			c1.4,0.7,3.6,1.2,6.4,1.9c9.6,2.5,14.2,5.3,14.2,12.3c0,8.6-6.4,13.9-17.1,13.9c-10.6,0-16.8-4.8-17.7-13.5l11.8-0.6
			c0.2,3.5,2.2,5.2,6,5.2c3.2,0,5.2-1.5,5.2-3.8c0-2.5-1.4-3.2-7.6-4.8c-4.3-1-6.1-1.6-9-2.9c-3.9-2-5.4-4.6-5.7-9.7
			c0-8.1,6.3-13.1,16.7-13.1C468.1,131.5,473.9,136.9,474.7,145"/>
	</g>
</g>
<g>
	<rect x="36" y="301.1" class="st2" width="211" height="211"/>
	<g>
		<path class="st1" d="M88.9,333.5v2.8c0,5.2-1.7,9.5-5,12.8c-3.4,3.3-7.7,4.9-13,4.9c-5.7,0-10.4-1.8-14.1-5.5
			c-3.7-3.7-5.6-8.2-5.6-13.5c0-5.4,1.8-9.9,5.5-13.6c3.7-3.7,8.3-5.6,13.8-5.6c6.9,0,12.9,3.4,16,8.6l-6.2,3.6
			c-1.7-3-5.5-5.1-9.9-5.1c-3.5,0-6.4,1.2-8.7,3.5c-2.3,2.3-3.4,5.1-3.4,8.7c0,3.5,1.2,6.4,3.4,8.6c2.3,2.3,5.4,3.4,9.1,3.4
			c5.6,0,9.4-2.6,10.7-7H70.5v-6.4H88.9z"/>
		<path class="st1" d="M99.8,331.5c1.2-3.4,4.2-5,7.6-5v7.6c-1.9-0.3-3.7,0.2-5.3,1.3c-1.5,1.1-2.3,2.9-2.3,5.4v12.6h-6.4V327h6.4
			V331.5z"/>
		<path class="st1" d="M131.5,337.7c-0.8-3.6-3.4-5.3-6.5-5.3c-3.6,0-6.1,1.9-6.9,5.3H131.5z M118.2,342.9c0.9,3.3,3.4,4.9,7.4,4.9
			c2.6,0,4.6-0.9,5.9-2.6l5.5,3.1c-2.6,3.7-6.4,5.6-11.4,5.6c-4.4,0-7.8-1.3-10.5-3.9c-2.6-2.6-3.9-5.9-3.9-9.9
			c0-3.9,1.3-7.2,3.9-9.9c2.6-2.7,5.9-4,10-4c3.8,0,7,1.3,9.5,4c2.5,2.7,3.8,5.9,3.8,9.9c0,0.9-0.1,1.8-0.3,2.8H118.2z"/>
		<path class="st1" d="M155.4,347.5c2.1,0,3.8-0.7,5.2-2c1.4-1.4,2.1-3.2,2.1-5.4c0-2.1-0.7-3.9-2.1-5.3c-1.4-1.4-3.1-2.1-5.2-2.1
			c-2.1,0-3.8,0.7-5.2,2.1c-1.4,1.4-2,3.2-2,5.3c0,2.2,0.7,3.9,2,5.4C151.6,346.8,153.3,347.5,155.4,347.5 M162.7,327h6.8v26.3h-6.8
			v-3.1c-2,2.6-4.9,3.8-8.6,3.8c-3.5,0-6.5-1.3-9-4c-2.5-2.7-3.7-6-3.7-9.9s1.3-7.1,3.7-9.8c2.5-2.7,5.5-4,9-4
			c3.7,0,6.5,1.3,8.6,3.8V327z"/>
		<path class="st1" d="M191.7,333.5h-5.9v10.9c0,2.8,2,2.9,5.9,2.7v6.1c-9.3,1-12.7-1.6-12.7-8.8v-10.9h-4.6V327h4.6v-5.3l6.8-2v7.4
			h5.9V333.5z"/>
		<path class="st1" d="M69.7,380.6c3.1,0,5.4-2.4,5.4-5.6c0-3.2-2.3-5.6-5.4-5.6h-6.5v11.1H69.7z M69.7,362.7c3.5,0,6.5,1.2,8.9,3.6
			s3.6,5.3,3.6,8.8c0,3.5-1.2,6.4-3.6,8.8c-2.4,2.4-5.4,3.6-8.9,3.6h-6.5v12.1H56v-36.8H69.7z"/>
	</g>
	<rect x="87.2" y="363" class="st1" width="6.8" height="36.4"/>
	<g>
		<path class="st1" d="M113.9,393.7c2.1,0,3.8-0.7,5.2-2c1.4-1.4,2.1-3.2,2.1-5.4c0-2.1-0.7-3.9-2.1-5.3c-1.4-1.4-3.1-2.1-5.2-2.1
			c-2.1,0-3.8,0.7-5.2,2.1c-1.4,1.4-2,3.2-2,5.3c0,2.2,0.7,3.9,2,5.4C110,393,111.8,393.7,113.9,393.7 M121.2,373.2h6.8v26.3h-6.8
			v-3.1c-2.1,2.6-4.9,3.8-8.6,3.8c-3.5,0-6.5-1.3-9-4c-2.5-2.7-3.7-6-3.7-9.9c0-3.9,1.3-7.1,3.7-9.8c2.5-2.7,5.5-4,9-4
			c3.7,0,6.5,1.3,8.6,3.8V373.2z"/>
		<path class="st1" d="M137.7,396.2c-2.6-2.7-3.9-5.9-3.9-9.9c0-3.9,1.3-7.2,3.9-9.9c2.7-2.7,6-4,9.9-4c5.1,0,9.6,2.6,11.8,6.8
			l-5.8,3.4c-1-2.2-3.3-3.5-6-3.5c-4,0-7,3-7,7.2c0,2,0.7,3.8,2,5.1c1.3,1.3,3,2,5,2c2.7,0,5-1.3,6-3.5l5.9,3.4
			c-2.3,4.2-6.8,6.8-11.9,6.8C143.7,400.2,140.4,398.9,137.7,396.2"/>
		<path class="st1" d="M183.6,383.8c-0.8-3.6-3.4-5.3-6.5-5.3c-3.6,0-6.1,1.9-6.9,5.3H183.6z M170.3,389.1c0.9,3.3,3.4,4.9,7.4,4.9
			c2.6,0,4.6-0.9,5.9-2.6l5.5,3.1c-2.6,3.7-6.4,5.6-11.4,5.6c-4.4,0-7.8-1.3-10.5-3.9c-2.6-2.6-3.9-5.9-3.9-9.9
			c0-3.9,1.3-7.2,3.9-9.9c2.6-2.7,5.9-4,10-4c3.8,0,7,1.3,9.5,4c2.5,2.7,3.8,5.9,3.8,9.9c0,0.9-0.1,1.8-0.3,2.8H170.3z"/>
	</g>
	<polygon class="st1" points="78.2,410.7 78.2,417.3 68.3,417.3 68.3,445.6 61,445.6 61,417.3 51.1,417.3 51.1,410.7 	"/>
	<g>
		<path class="st1" d="M89.5,439.7c2.1,0,3.7-0.7,5.1-2c1.4-1.4,2-3.1,2-5.2c0-2.1-0.7-3.8-2-5.2c-1.4-1.4-3-2.1-5.1-2.1
			c-2.1,0-3.7,0.7-5.1,2.1c-1.3,1.4-2,3.1-2,5.2c0,2.1,0.7,3.8,2,5.2C85.8,439,87.4,439.7,89.5,439.7 M89.5,446.3
			c-3.9,0-7.2-1.3-9.9-4c-2.7-2.7-4-6-4-9.9s1.3-7.1,4-9.8c2.7-2.7,6-4,9.9-4c3.9,0,7.2,1.4,9.9,4c2.7,2.7,4,5.9,4,9.8
			s-1.4,7.2-4,9.9C96.7,445,93.4,446.3,89.5,446.3"/>
	</g>
	<polygon class="st1" points="62.4,493.9 52.1,457.2 59.7,457.2 66.8,484.4 74.5,457.2 80.7,457.2 88.4,484.4 95.4,457.2 103,457.2 
		92.7,493.9 84.5,493.9 77.6,469.7 70.7,493.9 	"/>
	<g>
		<path class="st1" d="M116.3,488.1c2.1,0,3.7-0.7,5.1-2c1.4-1.4,2.1-3.1,2.1-5.2c0-2.1-0.7-3.8-2.1-5.2c-1.4-1.4-3-2.1-5.1-2.1
			c-2,0-3.7,0.7-5.1,2.1c-1.3,1.4-2,3.1-2,5.2c0,2.1,0.7,3.8,2,5.2C112.5,487.4,114.2,488.1,116.3,488.1 M116.3,494.7
			c-3.9,0-7.2-1.3-9.9-4c-2.7-2.7-4-6-4-9.9s1.3-7.1,4-9.8c2.7-2.7,6-4,9.9-4c3.9,0,7.2,1.4,9.9,4c2.7,2.7,4,5.9,4,9.8
			s-1.4,7.2-4,9.9C123.5,493.4,120.2,494.7,116.3,494.7"/>
		<path class="st1" d="M141.7,472.2c1.3-3.4,4.4-5,8-5v7.6c-2.1-0.3-3.9,0.2-5.6,1.3c-1.6,1.1-2.4,2.9-2.4,5.4v12.6H135v-26.3h6.8
			V472.2z"/>
	</g>
	<polygon class="st1" points="178.9,493.9 171.1,493.9 161.5,482 161.5,493.9 154.7,493.9 154.7,457.2 161.5,457.2 161.5,479.2 
		170.5,467.7 178.6,467.7 168.1,480.6 	"/>
	<path class="st1" d="M187.3,488.9c0.7,0,1-0.3,1-0.9v0c0-0.6-0.4-0.8-1-0.8h-0.8v1.7H187.3z M185.3,486.2h2.1
		c1.4,0,2.2,0.6,2.2,1.8v0c0,0.9-0.5,1.4-1.2,1.6l1.5,2.5h-1.3l-1.4-2.3h-0.6v2.3h-1.3V486.2z M192.2,489.2c0-2.9-2-5-4.9-5
		c-2.8,0-4.9,2.1-4.9,5c0,2.9,2.1,4.9,4.9,4.9C190.1,494.1,192.2,492.1,192.2,489.2 M181.4,489.2c0-3.3,2.6-5.9,5.9-5.9
		c3.4,0,5.9,2.6,5.9,5.9c0,3.3-2.6,5.9-5.9,5.9C184.1,495.1,181.4,492.5,181.4,489.2"/>
</g>
<g>
	<path class="st3" d="M396.5,474.7c0,8.4-4.4,13.8-9.1,18.9l-8.4,8.9h17.7v9.3h-31.4v-8.2l14-15.4c4.9-5.3,6.6-8,6.6-13
		c0-3.5-1.8-5.6-4.8-5.6c-3.8,0-5.3,2.7-5.4,7.1l-10.5-0.6c0.1-9.9,5.8-15.8,15.6-15.8C390.7,460.2,396.5,465.4,396.5,474.7z"/>
	<path class="st3" d="M438.6,486.4c0,16.9-8,26.2-19.2,26.2c-11.4,0-19.3-9.3-19.3-26.2c0-16.9,7.9-26.2,19.3-26.2
		C430.6,460.2,438.6,469.5,438.6,486.4z M410.7,486.4c0,11,2.7,16.9,8.6,16.9c5.9,0,8.6-5.8,8.6-16.9c0-11-2.7-16.9-8.6-16.9
		C413.3,469.5,410.7,475.4,410.7,486.4z"/>
	<path class="st3" d="M474.2,474.7c0,8.4-4.4,13.8-9.1,18.9l-8.4,8.9h17.7v9.3h-31.4v-8.2l14-15.4c4.9-5.3,6.6-8,6.6-13
		c0-3.5-1.8-5.6-4.8-5.6c-3.8,0-5.3,2.7-5.4,7.1l-10.5-0.6c0.1-9.9,5.8-15.8,15.6-15.8C468.4,460.2,474.2,465.4,474.2,474.7z"/>
	<path class="st3" d="M516.3,486.4c0,16.9-8,26.2-19.2,26.2c-11.4,0-19.3-9.3-19.3-26.2c0-16.9,7.9-26.2,19.3-26.2
		C508.3,460.2,516.3,469.5,516.3,486.4z M488.4,486.4c0,11,2.7,16.9,8.6,16.9c5.9,0,8.6-5.8,8.6-16.9c0-11-2.7-16.9-8.6-16.9
		C491.1,469.5,488.4,475.4,488.4,486.4z"/>
</g>
<g>
	<path class="st1" d="M485.3,134.7v10.2h-1.9v-10.2h-4.2V133h10.4v1.7H485.3z"/>
	<path class="st1" d="M502.6,144.9v-7.6l-3.9,7.6h-1.2l-3.9-7.6v7.6h-1.9V133h1.7l4.8,9l4.8-9h1.7v11.9H502.6z"/>
</g>
<g>
	<path class="st1" d="M57.7,233.5l-5.7,0.3c0-2.3-1.6-3.7-4.2-3.7s-4,1.3-4,3.2c0,2,1.5,2.6,5.2,3.5c5.5,1.4,9.1,3.1,9.1,7.9
		c0,5.7-4.5,8.2-9.9,8.2c-6.2,0-10.7-3-10.8-8.6l5.6-0.3c0.1,2.4,2.2,4.1,5.1,4.1c2.5,0,4.2-0.9,4.2-3.1c0-2-1.9-2.8-5.5-3.7
		c-4.8-1.2-8.9-2.6-8.9-7.8c0-4.4,3.1-8.2,9.5-8.2C53.6,225.2,57.6,228.3,57.7,233.5z"/>
	<path class="st1" d="M89.7,241.1v11.4h-5.2v-10.3c0-2.4-1.1-3.7-3.1-3.7c-1.9,0-3,1.2-3.2,3.1v10.9h-5.2v-10.3c0-2.4-1.1-3.7-3-3.7
		c-2.1,0-3.3,1.5-3.3,3.7v10.3h-5.2v-18.5h5v1.9c0.8-1.3,2.3-2.3,4.9-2.3s4.6,1,5.8,2.9c1.1-1.7,2.9-2.9,5.7-2.9
		C86.9,233.5,89.7,236.4,89.7,241.1z"/>
	<path class="st1" d="M108.6,241v11.4h-5.1v-1.5c-1,1.1-2.6,1.9-4.7,1.9c-3.7,0-6.2-1.9-6.2-5.5c0-4.1,3.5-5.5,7.4-5.6l3.3-0.2v-0.7
		c0-1.9-0.8-2.9-2.4-2.9c-1.8,0-2.6,1.2-2.6,2.4l-5.2-0.2c0-3.3,3-6.6,7.7-6.6C105.9,233.5,108.6,236.1,108.6,241z M100.6,245.2
		c-1.6,0.1-2.7,0.6-2.7,1.9c0,1.2,0.9,1.7,2.2,1.7c1.9,0,3.3-1,3.3-3V245L100.6,245.2z"/>
	<path class="st1" d="M112.6,252.4v-27.9h5.2v27.9H112.6z"/>
	<path class="st1" d="M122,252.4v-27.9h5.2v27.9H122z"/>
	<path class="st1" d="M165.5,239c0,8.4-5.9,13.8-13.9,13.8c-8.1,0-14-5.4-14-13.8c0-8.4,5.9-13.8,14-13.8
		C159.6,225.2,165.5,230.6,165.5,239z M143.3,239c0,5.5,3.4,8.9,8.3,8.9c4.8,0,8.3-3.4,8.3-8.9c0-5.6-3.4-8.9-8.3-8.9
		C146.7,230.1,143.3,233.5,143.3,239z"/>
	<path class="st1" d="M179,238.8c-3,0-4.9,1.7-4.9,4.3v9.4h-5.2v-18.5h5.1v2.1c0.8-1.2,2.3-2.3,5.1-2.3V238.8z"/>
	<path class="st1" d="M194.8,235.8v-1.9h4.9v19.2c0,5.3-3.7,8.8-9.4,8.8c-5.8,0-8.9-2.9-9.5-7.1l5.2-0.2c0.3,1.8,1.8,2.9,4.2,2.9
		c2.6,0,4.3-1.3,4.3-4v-2.7c-1,1.1-2.8,2-5.2,2c-5.2,0-8.9-3.8-8.9-9.6s3.7-9.7,8.9-9.7C191.9,233.5,193.8,234.5,194.8,235.8z
		 M185.6,243.2c0,3.3,1.9,5.2,4.5,5.2c2.6,0,4.4-1.8,4.4-4.7v-0.9c0-3-1.8-4.7-4.4-4.7C187.5,238,185.6,239.9,185.6,243.2z"/>
	<path class="st1" d="M218.5,241v11.4h-5.1v-1.5c-1,1.1-2.6,1.9-4.7,1.9c-3.7,0-6.2-1.9-6.2-5.5c0-4.1,3.5-5.5,7.4-5.6l3.3-0.2v-0.7
		c0-1.9-0.8-2.9-2.4-2.9c-1.8,0-2.6,1.2-2.6,2.4l-5.2-0.2c0-3.3,3-6.6,7.7-6.6C215.8,233.5,218.5,236.1,218.5,241z M210.5,245.2
		c-1.6,0.1-2.7,0.6-2.7,1.9c0,1.2,0.9,1.7,2.2,1.7c1.9,0,3.3-1,3.3-3V245L210.5,245.2z"/>
	<path class="st1" d="M239.7,241.1v11.3h-5.2v-10.3c0-2.4-1.3-3.7-3.3-3.7c-2.1,0-3.4,1.5-3.4,3.7v10.3h-5.2v-18.5h5v1.9
		c0.8-1.3,2.5-2.3,5-2.3C236.7,233.5,239.7,236.3,239.7,241.1z"/>
	<path class="st1" d="M249.4,227.8c0,1.7-1.4,3.1-3.2,3.1s-3.1-1.4-3.1-3.1c0-1.8,1.4-3.2,3.1-3.2
		C248,224.7,249.4,226.1,249.4,227.8z M243.6,252.4v-18.5h5.2v18.5H243.6z"/>
	<path class="st1" d="M266.9,239.5l-5.2,0.3c-0.1-1.3-0.8-2.3-2.4-2.3c-1.4,0-2.1,0.6-2.1,1.6c0,1.3,1.4,1.5,3.6,2
		c3.7,1,6.3,2.1,6.3,5.5c0,3.8-2.8,6.2-7.6,6.2c-4.7,0-7.5-2.2-7.9-6l5.2-0.3c0.1,1.4,0.9,2.3,2.7,2.3c1.4,0,2.3-0.6,2.3-1.7
		c0-1.1-0.7-1.5-3.4-2.1c-3.9-1-6.6-1.8-6.6-5.6c0-3.6,2.8-5.8,7.4-5.8C264.1,233.5,266.5,236.1,266.9,239.5z"/>
	<path class="st1" d="M285.1,241v11.4H280v-1.5c-1,1.1-2.6,1.9-4.7,1.9c-3.7,0-6.2-1.9-6.2-5.5c0-4.1,3.5-5.5,7.4-5.6l3.3-0.2v-0.7
		c0-1.9-0.8-2.9-2.4-2.9c-1.8,0-2.6,1.2-2.6,2.4l-5.2-0.2c0-3.3,3-6.6,7.7-6.6C282.4,233.5,285.1,236.1,285.1,241z M277.1,245.2
		c-1.6,0.1-2.7,0.6-2.7,1.9c0,1.2,0.9,1.7,2.2,1.7c1.9,0,3.3-1,3.3-3V245L277.1,245.2z"/>
	<path class="st1" d="M295.5,245.3c0,2,1.3,2.8,2.8,2.8c0.8,0,1.2-0.1,1.6-0.2v4.7c-0.8,0.1-1.5,0.2-2.9,0.2c-4,0-6.8-1.9-6.7-6.2
		l0-8.1h-3.4v-4.5h3.4l0-6.1h5.2l0,6.1h4.3v4.5h-4.4L295.5,245.3z"/>
	<path class="st1" d="M308.3,227.8c0,1.7-1.4,3.1-3.2,3.1s-3.1-1.4-3.1-3.1c0-1.8,1.4-3.2,3.1-3.2
		C306.9,224.7,308.3,226.1,308.3,227.8z M302.5,252.4v-18.5h5.2v18.5H302.5z"/>
	<path class="st1" d="M330.7,243.2c0,5.8-4.2,9.6-9.9,9.6s-9.9-3.8-9.9-9.6c0-5.8,4.2-9.7,9.9-9.7S330.7,237.3,330.7,243.2z
		 M316.2,243.2c0,3.2,1.9,5.1,4.6,5.1s4.6-1.9,4.6-5.1c0-3.3-1.9-5.2-4.6-5.2S316.2,239.9,316.2,243.2z"/>
	<path class="st1" d="M351,241.1v11.3h-5.2v-10.3c0-2.4-1.3-3.7-3.3-3.7c-2.1,0-3.4,1.5-3.4,3.7v10.3h-5.2v-18.5h5v1.9
		c0.8-1.3,2.5-2.3,5-2.3C348,233.5,351,236.3,351,241.1z"/>
	<path class="st1" d="M368.8,239.5l-5.2,0.3c-0.1-1.3-0.8-2.3-2.4-2.3c-1.4,0-2.1,0.6-2.1,1.6c0,1.3,1.4,1.5,3.6,2
		c3.7,1,6.3,2.1,6.3,5.5c0,3.8-2.8,6.2-7.6,6.2c-4.7,0-7.5-2.2-7.9-6l5.2-0.3c0.1,1.4,0.9,2.3,2.7,2.3c1.4,0,2.3-0.6,2.3-1.7
		c0-1.1-0.7-1.5-3.4-2.1c-3.9-1-6.6-1.8-6.6-5.6c0-3.6,2.8-5.8,7.4-5.8C366,233.5,368.4,236.1,368.8,239.5z"/>
</g>
<g>
	<path class="st3" d="M483.4,427.8c0,8.7-5.3,13.5-13.8,13.5c-8.5,0-13.8-4.8-13.8-13.5v-20.5h5.3v20.4c0,5.8,3.1,8.8,8.4,8.8
		c5.3,0,8.4-3,8.4-8.8v-20.4h5.3V427.8z"/>
	<path class="st3" d="M516.3,440.9h-6.6l-11-15.3l-4.1,4.7v10.5h-5.3v-33.6h5.3v15l13.1-15h6.9l-12.3,14.1L516.3,440.9z"/>
</g>
</svg>
