<?xml version="1.0" encoding="utf-8"?>
<!-- Generator: Adobe Illustrator 19.0.1, SVG Export Plug-In . SVG Version: 6.00 Build 0)  -->
<svg version="1.1" id="Layer_1" xmlns="http://www.w3.org/2000/svg" xmlns:xlink="http://www.w3.org/1999/xlink" x="0px" y="0px"
	 viewBox="0 0 393.7 190.8" style="enable-background:new 0 0 393.7 190.8;" xml:space="preserve">
	 <style type="text/css">
		.aps-svg {fill: #ffffff;}
	</style>
<path class="aps-svg" d="M317.7,26.6c37.6,0,45.6,28.1,47.2,38.2L346.5,65c-1.2-6.6-6.6-20.1-30.7-20.1c-23.8,0-27,10.1-27,13.7
		c0,4.9,2.9,7.4,29.1,10.8c31.3,4,45.6,10.1,45.6,29s-19.9,31.8-45.9,31.8c-30.5,0-48.6-20.5-48.6-41.8h18.6c0,0,0.4,23.5,29.9,23.5
		c26.2,0,27.9-10.8,27.9-13.4c0-4.9-2.9-8.6-30.1-11.1s-44.9-9.9-44.9-28S288.5,26.6,317.7,26.6z"/>
<path class="aps-svg" d="M206.7,26.3c-29.7,0-50.4,22.6-50.4,54.9v90.7h20.3V84.5c0-28.5,15.6-38.7,30.2-38.7
	c18.5,0,31.4,13.5,31.4,32.8c0,19.4-12.4,32.4-31,32.4c-8.2,0-17.9-4.2-24-8.3l-1.8-1.3V123l0.6,0.3c8.2,4.7,17.7,7.1,28.3,7.1
	c12.4,0,24.7-5.2,33.7-14.3c9.3-9.4,14.5-21.9,14.5-35.3c0-14.8-4.8-28.4-13.6-38.3C235.3,31.9,222.1,26.3,206.7,26.3z"/>
<path class="aps-svg" d="M94.7,26.3c-15.4,0-28.6,5.6-38,16.2C47.9,52.4,43,66,43,80.8c0,13.3,5.1,25.9,14.5,35.3
	c9,9.1,21.3,14.3,33.7,14.3c10.5,0,20.1-2.4,28.3-7.1l0.6-0.3v-21.7l-1.8,1.3c-6,4.2-15.8,8.3-24,8.3c-18.5,0-31-13-31-32.4
	c0-19.3,12.9-32.8,31.4-32.8c14.6,0,30.2,10.2,30.2,38.7v43.9h20.3V81.2C145.1,48.9,124.4,26.3,94.7,26.3z"/>
</svg>
