<svg xmlns="http://www.w3.org/2000/svg" viewBox="0 0 480.81 235.36"><defs><style>.cls-1{isolation:isolate;}.cls-2{fill:#3C3C3C;}.cls-3{fill:#ffed00;}.cls-3,.cls-4{mix-blend-mode:multiply;}.cls-4{fill:#f59c2b;}.cls-5{fill:#006eb7;}.cls-6{fill:#00aad6;}.cls-7{fill:#e30613;}.cls-8{fill:#312783;}.cls-9{fill:#8c4091;}.cls-10{fill:#e94e1b;}.cls-11{fill:#007a39;}.cls-12{fill:#e6007e;}.cls-13{fill:#65b32e;}.cls-14{fill:#95c11f;}.cls-15{fill:#f9b233;}</style></defs><title>APS-J100058 Internal Brand Refresh-Primary Logo</title><g class="cls-1"><g id="Layer_1" data-name="Layer 1"><path class="cls-2" d="M220.71,239.43a0.24,0.24,0,0,1,.28.28v0.92a0.24,0.24,0,0,1-.28.28h-9.12v8.54h11.18a0.24,0.24,0,0,1,.28.28v0.92a0.24,0.24,0,0,1-.28.28h-12.5a0.24,0.24,0,0,1-.28-0.28V229.69a0.24,0.24,0,0,1,.28-0.28h12.5a0.24,0.24,0,0,1,.28.28v0.92a0.24,0.24,0,0,1-.28.28H211.58v8.54h9.12Z" transform="translate(-43.26 -15.99)"/><path class="cls-2" d="M226.2,229.66a0.18,0.18,0,0,1,.18-0.25h1.14a0.37,0.37,0,0,1,.37.25L236.1,249l8.14-19.38a0.48,0.48,0,0,1,.4-0.25h1.17a0.16,0.16,0,0,1,.15.25l-8.94,21a0.37,0.37,0,0,1-.37.25h-1.14a0.48,0.48,0,0,1-.4-0.25Z" transform="translate(-43.26 -15.99)"/><path class="cls-2" d="M260.48,239.43a0.24,0.24,0,0,1,.28.28v0.92a0.24,0.24,0,0,1-.28.28h-9.12v8.54h11.18a0.24,0.24,0,0,1,.28.28v0.92a0.24,0.24,0,0,1-.28.28H250a0.24,0.24,0,0,1-.28-0.28V229.69a0.24,0.24,0,0,1,.28-0.28h12.5a0.24,0.24,0,0,1,.28.28v0.92a0.24,0.24,0,0,1-.28.28H251.36v8.54h9.12Z" transform="translate(-43.26 -15.99)"/><path class="cls-2" d="M267.12,229.69a0.24,0.24,0,0,1,.28-0.28h1a0.47,0.47,0,0,1,.43.21l14,18.8V229.69a0.24,0.24,0,0,1,.28-0.28h1a0.24,0.24,0,0,1,.28.28v20.95a0.24,0.24,0,0,1-.28.28h-1a0.47,0.47,0,0,1-.43-0.21l-14-18.68v18.61a0.24,0.24,0,0,1-.28.28h-1a0.24,0.24,0,0,1-.28-0.28V229.69Z" transform="translate(-43.26 -15.99)"/><path class="cls-2" d="M302.51,229.42a0.24,0.24,0,0,1,.28.28v0.92a0.25,0.25,0,0,1-.28.28h-6.24v19.75a0.24,0.24,0,0,1-.28.28h-1a0.24,0.24,0,0,1-.28-0.28V230.89h-6.24a0.24,0.24,0,0,1-.28-0.28v-0.92a0.24,0.24,0,0,1,.28-0.28h14.07Z" transform="translate(-43.26 -15.99)"/><path class="cls-2" d="M306.19,245.39a0.24,0.24,0,0,1,.31.22c0.4,3.07,3.41,4.27,6,4.27,2.76,0,5.71-1.44,5.71-4.49,0-3.65-3.78-4.18-6.73-4.91-3.19-.83-6.42-1.87-6.42-5.65,0-4,3.47-5.84,7.34-5.84s6.76,2.21,7.25,5.53a0.26,0.26,0,0,1-.25.34l-1,.25a0.24,0.24,0,0,1-.31-0.22c-0.4-3.07-3.26-4.42-5.74-4.42-2.95,0-5.68,1.35-5.68,4.36s2.76,3.53,5.74,4.27c3.53,0.89,7.31,1.84,7.31,6.27,0,3.56-3.1,6-7.28,6-3.78,0-6.91-1.93-7.49-5.41a0.25,0.25,0,0,1,.25-0.34Z" transform="translate(-43.26 -15.99)"/><path class="cls-2" d="M350.95,250.15a0.22,0.22,0,0,1,0,.37l-0.71.68a0.23,0.23,0,0,1-.37,0l-3-2.95a7.89,7.89,0,0,1-6.39,3.1c-4.27,0-7.19-2.4-7.19-6,0-3.1,2.18-4.73,4.55-6.11-2.21-2.3-3-3.59-3-5.5,0-2.55,2-4.73,5.34-4.73,3,0,4.92,1.84,4.92,4.67s-2.43,4.27-4.92,5.78l6.48,6.45a11.06,11.06,0,0,0,1-4.61v-0.06a0.24,0.24,0,0,1,.28-0.28h1a0.24,0.24,0,0,1,.28.28,13.17,13.17,0,0,1-1.5,5.71Zm-5.1-2.92-7.06-7c-2.12,1.32-4,2.73-4,5.13,0,2.7,2.55,4.49,5.34,4.49A6.78,6.78,0,0,0,345.85,247.23Zm-6.67-8.79c2.24-1.23,4.21-2.46,4.3-4.64a3.17,3.17,0,0,0-3.32-3.35c-2,0-3.75,1-3.75,3.38C336.42,235.32,338,237.16,339.18,238.45Z" transform="translate(-43.26 -15.99)"/><path class="cls-2" d="M365.94,232v18.61a0.24,0.24,0,0,1-.28.28h-1a0.24,0.24,0,0,1-.28-0.28V229.69a0.24,0.24,0,0,1,.28-0.28h1a0.46,0.46,0,0,1,.43.21l8.11,10.9,8.11-10.9a0.47,0.47,0,0,1,.43-0.21h1a0.24,0.24,0,0,1,.28.28v20.95a0.24,0.24,0,0,1-.28.28h-1a0.24,0.24,0,0,1-.28-0.28V232l-8.11,10.84a0.2,0.2,0,0,1-.31,0Z" transform="translate(-43.26 -15.99)"/><path class="cls-2" d="M399.69,239.43a0.24,0.24,0,0,1,.28.28v0.92a0.24,0.24,0,0,1-.28.28h-9.12v8.54h11.18a0.24,0.24,0,0,1,.28.28v0.92a0.24,0.24,0,0,1-.28.28h-12.5a0.24,0.24,0,0,1-.28-0.28V229.69a0.24,0.24,0,0,1,.28-0.28h12.5a0.24,0.24,0,0,1,.28.28v0.92a0.25,0.25,0,0,1-.28.28H390.57v8.54h9.12Z" transform="translate(-43.26 -15.99)"/><path class="cls-2" d="M413,229.42c5.93,0,10.44,3.62,10.44,10.75s-4.52,10.75-10.44,10.75H406.3a0.24,0.24,0,0,1-.28-0.28V229.69a0.24,0.24,0,0,1,.28-0.28H413Zm0,20c5.1,0,8.85-3,8.85-9.28s-3.75-9.28-8.85-9.28h-5.34v18.55H413Z" transform="translate(-43.26 -15.99)"/><path class="cls-2" d="M429.3,250.64a0.24,0.24,0,0,1-.28.28h-1a0.24,0.24,0,0,1-.28-0.28V229.69a0.24,0.24,0,0,1,.28-0.28h1a0.24,0.24,0,0,1,.28.28v20.95Z" transform="translate(-43.26 -15.99)"/><path class="cls-2" d="M442,229.66a0.48,0.48,0,0,1,.4-0.25h1.14a0.37,0.37,0,0,1,.37.25l8.94,21a0.16,0.16,0,0,1-.15.25h-1.17a0.48,0.48,0,0,1-.4-0.25L449,245.61H436.92l-2.15,5.07a0.37,0.37,0,0,1-.37.25h-1.14a0.18,0.18,0,0,1-.18-0.25Zm-4.45,14.44h10.81L443,231.29Z" transform="translate(-43.26 -15.99)"/><g id="LOGO"><g id="aps"><path class="cls-2" d="M318,105.85c37.62,0,45.56,28.05,47.21,38.24l-18.42.11c-1.21-6.58-6.62-20.05-30.74-20.05-23.83,0-27,10.08-27,13.71,0,4.88,2.88,7.38,29.13,10.75,31.33,4,45.63,10.13,45.63,29s-19.87,31.75-45.87,31.75c-30.5,0-48.62-20.5-48.62-41.75h18.63s0.38,23.5,29.88,23.5c26.25,0,27.88-10.81,27.88-13.44,0-4.87-2.87-8.56-30.12-11.06s-44.87-9.87-44.87-28S288.72,105.85,318,105.85Z" transform="translate(-43.26 -15.99)"/><path class="cls-2" d="M206.92,105.56c-29.7,0-50.44,22.58-50.44,54.92v90.66h20.27v-87.4c0-28.54,15.58-38.72,30.17-38.72,18.48,0,31.39,13.49,31.39,32.81s-12.45,32.41-31,32.41c-8.17,0-17.92-4.19-24-8.34l-1.85-1.27v21.66l0.59,0.34a56.21,56.21,0,0,0,28.27,7.08,48,48,0,0,0,33.74-14.34,49.78,49.78,0,0,0,14.46-35.28c0-14.82-4.84-28.41-13.63-38.29C235.5,111.17,222.35,105.56,206.92,105.56Z" transform="translate(-43.26 -15.99)"/><path class="cls-2" d="M94.92,105.56c-15.43,0-28.58,5.61-38,16.22-8.79,9.88-13.63,23.47-13.63,38.29a49.78,49.78,0,0,0,14.46,35.28A48,48,0,0,0,91.46,209.7a56.21,56.21,0,0,0,28.27-7.08l0.59-.34V180.62l-1.85,1.27c-6,4.15-15.79,8.34-24,8.34-18.53,0-31-13-31-32.41S76.44,125,94.92,125c14.58,0,30.17,10.17,30.17,38.72v43.93h20.27V160.48C145.36,128.14,124.62,105.56,94.92,105.56Z" transform="translate(-43.26 -15.99)"/></g><g id="insignia"><polygon class="cls-3" points="413.74 78.49 413.74 78.49 413.74 78.49 463.86 41.25 445.6 35.2 411.96 45.3 413.74 78.49"/><polygon class="cls-4" points="480.76 79.88 480.76 79.84 480.67 79.88 480.76 79.88"/><polygon class="cls-4" points="414.86 78.52 480.75 79.82 476.34 45.38 463.86 41.25 413.74 78.49 414.86 78.52"/><polygon class="cls-5" points="333 38 349.38 65.09 369.88 41.25 358.94 12.77 333 38"/><polygon class="cls-6" points="324.2 94.37 346.67 128.56 369.88 41.25 324.2 94.37"/><polygon class="cls-7" points="390.91 95.54 411.21 147.97 451.11 131.67 450.43 109.66 413.74 78.49 390.91 95.54"/><polygon class="cls-8" points="369.88 41.25 346.67 128.56 390.91 95.54 369.88 41.25"/><polygon class="cls-9" points="346.67 128.56 386.36 116.49 411.21 147.97 390.91 95.54 346.67 128.56"/><polygon class="cls-10" points="480.75 79.82 414.86 78.52 413.74 78.49 450.43 109.66 449.92 93.24 480.67 79.88 480.76 79.84 480.81 79.82 480.75 79.82"/><polygon class="cls-11" points="369.88 41.25 411.96 45.3 389.72 19.73 358.94 12.77 369.88 41.25 369.89 41.25 369.88 41.25"/><polygon class="cls-12" points="413.74 78.49 369.88 41.25 390.91 95.54 413.74 78.49"/><polygon class="cls-13" points="411.96 45.3 409.6 0 389.72 19.73 411.96 45.3 411.96 45.3"/><polygon class="cls-14" points="411.96 45.3 411.96 45.3 445.6 35.2 442.33 8.67 409.6 0 411.96 45.3 411.96 45.3"/><polygon class="cls-15" points="411.96 45.3 411.96 45.3 411.96 45.3 411.96 45.3 369.88 41.25 369.89 41.25 413.74 78.49 413.74 78.49 411.96 45.3"/></g></g></g></g></svg>